<svg width="100" height="100" viewBox="0 0 100 100" fill="none" xmlns="http://www.w3.org/2000/svg">
<path d="M97.7155 53.1567L97.7153 53.1569L83.4477 67.69C83.4467 67.691 83.4457 67.6921 83.4447 67.6931C82.6183 68.517 81.516 68.9829 80.3669 69C79.7987 68.999 79.2331 68.8743 78.694 68.6418L78.694 68.6418L78.6834 68.6373C77.8939 68.3076 77.2164 67.7435 76.7403 67.0148C76.2642 66.286 76.0122 65.4268 76.0188 64.5481V64.5406V57.2666C76.0188 56.5238 75.7291 55.8079 75.2079 55.2772C74.6862 54.7461 73.9747 54.4443 73.229 54.4442C73.2289 54.4442 73.2288 54.4442 73.2287 54.4442L42.8592 54.4364H42.8589L26.779 54.4363L26.7746 54.4364C26.033 54.4396 25.3264 54.7411 24.8075 55.2694C24.2892 55.797 23.9997 56.508 23.9966 57.2467V57.2509V64.5259C23.9836 65.4312 23.6966 66.3088 23.1769 67.039C22.6563 67.7705 21.9284 68.3174 21.0949 68.608L21.0568 68.6213L21.0198 68.6376C20.5733 68.8351 20.0979 68.9546 19.6136 68.9916C18.4661 68.9689 17.3819 68.5048 16.5639 67.6861C16.563 67.6852 16.5621 67.6843 16.5613 67.6835L2.27817 53.1423C2.2779 53.1421 2.27764 53.1418 2.27738 53.1415C1.46129 52.3071 1 51.1738 1 49.9887C1 48.8036 1.4613 47.6703 2.27741 46.8359C2.27766 46.8356 2.27791 46.8354 2.27817 46.8351L16.5569 32.2906C16.5573 32.2902 16.5577 32.2898 16.5582 32.2894C17.1695 31.671 17.9447 31.2526 18.7851 31.0837C19.626 30.9148 20.4974 31.0027 21.2904 31.3372C22.0836 31.6718 22.7647 32.239 23.246 32.9702C23.7272 33.7013 23.9863 34.5627 23.9889 35.446V42.7187C23.9889 43.0869 24.0601 43.4519 24.1989 43.793C24.3377 44.1341 24.5416 44.4452 24.7998 44.7081C25.058 44.971 25.3656 45.1805 25.7054 45.3238C26.0452 45.4671 26.4101 45.5411 26.779 45.5411H57.1411L73.221 45.5411L73.2254 45.5411C73.9691 45.5378 74.6775 45.2346 75.1967 44.7038C75.7153 44.1735 76.0034 43.4594 76.0034 42.7187V35.4506C76.015 34.544 76.3014 33.6648 76.8213 32.9332C77.342 32.2004 78.0707 31.6525 78.9051 31.3616L78.9173 31.3573L78.9294 31.3527C79.6942 31.0637 80.5226 30.9996 81.3207 31.1672C82.1153 31.3342 82.8503 31.7248 83.4417 32.297L97.7218 46.843C98.5384 47.6775 99 48.8111 99 49.9966C99 51.182 98.5384 52.3157 97.7218 53.1502L97.7155 53.1567Z" stroke="black" stroke-width="2"/>
</svg>
