<svg width="100" height="100" viewBox="0 0 100 100" fill="none" xmlns="http://www.w3.org/2000/svg">
<g clip-path="url(#clip0_601_24)">
<path fill-rule="evenodd" clip-rule="evenodd" d="M57.4589 55.4415L73.2287 55.4442C73.7035 55.4442 74.1588 55.6362 74.4945 55.978C74.8302 56.3198 75.0188 56.7833 75.0188 57.2666V64.5406C75.0107 65.615 75.3187 66.6672 75.9032 67.5618C76.4876 68.4564 77.3217 69.1523 78.2981 69.5601C78.9539 69.8429 79.6561 70 80.3737 70C81.7895 69.9811 83.1437 69.4071 84.1544 68.3975L98.4366 53.8496C99.4378 52.8264 100 51.4409 100 49.9966C100 48.5523 99.4378 47.1668 98.4366 46.1436L84.1467 31.5878C83.4194 30.8804 82.5114 30.3956 81.5263 30.1886C80.5412 29.9816 79.5188 30.0609 78.5759 30.4173C77.5434 30.7773 76.6458 31.4538 76.0061 32.354C75.3665 33.2541 75.0162 34.3338 75.0034 35.4447V42.7187C75.0034 43.2007 74.8158 43.663 74.4818 44.0046C74.1478 44.3461 73.6944 44.539 73.221 44.5411H57.4589H55.4589V42.5411V26.779C55.4589 26.5439 55.506 26.3111 55.5976 26.094C55.6892 25.8768 55.8234 25.6794 55.9927 25.5132C56.1619 25.347 56.3628 25.2151 56.5839 25.1252C56.805 25.0352 57.042 24.9889 57.2813 24.9889H64.5553C65.6324 24.9861 66.6847 24.6703 67.5795 24.0813C68.4744 23.4924 69.1719 22.6566 69.5842 21.6791C69.9965 20.7016 70.1052 19.6262 69.8967 18.5882C69.6882 17.5501 69.1717 16.5959 68.4122 15.8456L53.8643 1.56342C52.841 0.562173 51.4556 -8.73735e-07 50.0113 -8.73735e-07C48.567 -8.73735e-07 47.1815 0.562173 46.1583 1.56342L31.6103 15.8533C30.597 16.8641 30.0236 18.2143 30.0079 19.6418C30.0492 20.2563 30.198 20.8592 30.4477 21.4242C30.8073 22.4553 31.4826 23.3521 32.3812 23.9917C33.2798 24.6312 34.3577 24.9822 35.4673 24.9966H42.7491C43.2297 24.9986 43.69 25.1871 44.0299 25.5209C44.3697 25.8547 44.5616 26.3069 44.5636 26.779L44.5606 44.5411H26.779C26.5439 44.5411 26.3111 44.494 26.094 44.4024C25.8768 44.3108 25.6794 44.1766 25.5132 44.0073C25.347 43.8381 25.2151 43.6372 25.1252 43.4161C25.0352 43.195 24.9889 42.958 24.9889 42.7187V35.4447C24.9861 34.3676 24.6703 33.3153 24.0813 32.4205C23.4924 31.5256 22.6566 30.8281 21.6791 30.4158C20.7016 30.0035 19.6262 29.8948 18.5882 30.1033C17.5501 30.3118 16.5959 30.8283 15.8456 31.5878L1.56342 46.1357C0.562174 47.159 0 48.5444 0 49.9887C0 51.433 0.562174 52.8185 1.56342 53.8417L15.8533 68.3897C16.8641 69.403 18.2143 69.9764 19.6418 69.9921C20.2563 69.9508 20.8592 69.802 21.4242 69.5523C22.4553 69.1927 23.3521 68.5174 23.9917 67.6188C24.6312 66.7202 24.9822 65.6423 24.9966 64.5327V57.2509C24.9986 56.7703 25.1871 56.31 25.5209 55.9701C25.8547 55.6303 26.3069 55.4384 26.779 55.4364L42.5588 55.439L44.5588 55.4394L44.5585 57.4394L44.5558 73.2287C44.5558 73.7035 44.3638 74.1588 44.022 74.4945C43.6802 74.8302 43.2167 75.0188 42.7334 75.0188H35.4594C34.385 75.0107 33.3328 75.3187 32.4382 75.9032C31.5436 76.4876 30.8477 77.3217 30.4399 78.2981C30.1571 78.9539 30 79.6561 30 80.3737C30.0189 81.7895 30.5929 83.1437 31.6025 84.1544L46.1504 98.4366C47.1736 99.4378 48.5591 100 50.0034 100C51.4477 100 52.8332 99.4378 53.8564 98.4366L68.4122 84.1467C69.1196 83.4194 69.6044 82.5114 69.8114 81.5263C70.0184 80.5412 69.9391 79.5188 69.5827 78.5759C69.2227 77.5434 68.5462 76.6458 67.646 76.0061C66.7459 75.3665 65.6662 75.0162 64.5553 75.0034H57.2813C56.7993 75.0034 56.337 74.8158 55.9954 74.4818C55.6539 74.1478 55.461 73.6944 55.4589 73.221L55.4589 57.4412V55.4412L57.4589 55.4415ZM64.5422 77.0034H57.2813C56.2818 77.0034 55.316 76.6148 54.597 75.9117C53.8768 75.2073 53.4634 74.2438 53.4589 73.2298L53.4589 73.221L53.4589 55.4412V53.4409L55.4592 53.4412L73.2287 53.4442C73.2288 53.4442 73.2289 53.4442 73.2291 53.4442C74.2458 53.4443 75.2135 53.8559 75.9213 54.5765C76.6281 55.296 77.0188 56.2643 77.0188 57.2666V64.5406V64.5481L77.0188 64.5557C77.0136 65.2387 77.2096 65.9048 77.5775 66.4679C77.9451 67.0306 78.466 67.4628 79.0688 67.7146L79.0794 67.719L79.09 67.7236C79.5121 67.9056 79.9411 67.9981 80.3604 68C81.2426 67.9847 82.0927 67.6269 82.7346 66.9889C82.7368 66.9868 82.7389 66.9846 82.741 66.9825L97.0071 52.4508C97.0077 52.4502 97.0082 52.4496 97.0088 52.4491C97.6397 51.8034 98 50.9223 98 49.9966C98 49.0708 97.6396 48.1897 97.0088 47.5441C97.0082 47.5435 97.0077 47.5429 97.0071 47.5424L82.7376 33.0073C82.2822 32.5696 81.7198 32.2729 81.1151 32.1459C80.504 32.0175 79.8696 32.0664 79.283 32.2881L79.2588 32.2973L79.2343 32.3058C78.5979 32.5277 78.0383 32.947 77.6364 33.5125C77.2361 34.0758 77.0135 34.755 77.0034 35.4578V42.7187C77.0034 43.7182 76.6148 44.684 75.9117 45.403C75.2073 46.1231 74.2438 46.5366 73.2298 46.5411L73.221 46.5411L55.4589 46.5411H53.4589V44.5411V26.779C53.4589 26.2763 53.5597 25.7793 53.7548 25.3168C53.9498 24.8544 54.2346 24.4367 54.5912 24.0864C54.9477 23.7362 55.369 23.4603 55.8302 23.2726C56.2913 23.085 56.7843 22.9889 57.2813 22.9889H64.5525C65.2421 22.9866 65.9127 22.7841 66.48 22.4107C67.0476 22.0371 67.4846 21.5107 67.7414 20.9018C67.9981 20.2932 68.0652 19.6259 67.9359 18.9821C67.8067 18.339 67.4861 17.7428 67.0086 17.2703C67.0079 17.2696 67.0072 17.2689 67.0066 17.2683L52.4655 2.99291C52.465 2.99245 52.4646 2.99198 52.4641 2.99152C51.8184 2.36047 50.9372 2 50.0113 2C49.0854 2 48.2042 2.36045 47.5585 2.99145C47.558 2.99194 47.5575 2.99242 47.557 2.99291L33.0179 17.2741C32.3937 17.8991 32.0388 18.7176 32.0095 19.5851C32.0418 19.9394 32.1319 20.2873 32.277 20.6155L32.3096 20.6894L32.3362 20.7657C32.5579 21.4014 32.9764 21.9604 33.5409 22.3622C34.1028 22.7621 34.7804 22.9852 35.4817 22.9966H42.7491H42.7575C43.7542 23.0008 44.7159 23.3913 45.4314 24.0941C46.148 24.798 46.5592 25.7591 46.5636 26.7702L46.5637 26.7793L46.5606 44.5414L46.5603 46.5411H44.5606H26.779C26.2762 46.5411 25.7793 46.4402 25.3168 46.2452L25.3168 46.2452C24.8544 46.0502 24.4367 45.7654 24.0864 45.4088C23.7362 45.0523 23.4603 44.631 23.2726 44.1698C23.085 43.7087 22.9889 43.2157 22.9889 42.7187V35.4475C22.9866 34.7579 22.7841 34.0873 22.4107 33.52C22.0371 32.9524 21.5107 32.5154 20.9018 32.2586C20.2932 32.0019 19.6259 31.9348 18.9821 32.0641C18.3391 32.1933 17.743 32.5139 17.2705 32.9912C17.2698 32.9919 17.269 32.9927 17.2683 32.9934L2.99291 47.5345C2.99246 47.5349 2.99202 47.5354 2.99158 47.5359C2.36049 48.1815 2 49.0628 2 49.9887C2 50.9146 2.36045 51.7958 2.99146 52.4415C2.99194 52.442 2.99242 52.4425 2.99291 52.443L17.2693 66.9772C17.2709 66.9789 17.2725 66.9805 17.2741 66.9821C17.8991 67.6063 18.7176 67.9612 19.5851 67.9905C19.9394 67.9582 20.2873 67.8681 20.6155 67.723L20.6894 67.6904L20.7657 67.6638C21.4014 67.4421 21.9604 67.0236 22.3622 66.4591C22.7621 65.8972 22.9852 65.2196 22.9966 64.5183V57.2509V57.2425C23.0008 56.2457 23.3913 55.2841 24.0941 54.5686C24.798 53.852 25.7591 53.4408 26.7702 53.4364L26.7793 53.4363L44.5591 53.4394L46.5591 53.4397L46.5588 55.4397L46.5558 73.2287C46.5558 73.2288 46.5558 73.2289 46.5558 73.2291C46.5557 74.2458 46.1441 75.2135 45.4235 75.9213C44.704 76.6281 43.7357 77.0188 42.7334 77.0188H35.4594H35.4519L35.4443 77.0188C34.7613 77.0136 34.0952 77.2096 33.5321 77.5775C32.9694 77.9452 32.5372 78.466 32.2854 79.0688L32.281 79.0794L32.2764 79.09C32.0944 79.5121 32.0019 79.9412 32 80.3605C32.0153 81.2427 32.3732 82.0929 33.0113 82.7348C33.0133 82.7369 33.0154 82.7389 33.0175 82.741L47.5492 97.0071C47.5498 97.0077 47.5504 97.0082 47.5509 97.0088C48.1966 97.6397 49.0776 98 50.0034 98C50.9292 98 51.8103 97.6396 52.4559 97.0088C52.4565 97.0082 52.4571 97.0077 52.4576 97.0071L66.9928 82.7375C67.4304 82.282 67.7271 81.7198 67.8541 81.1151C67.9825 80.504 67.9336 79.8696 67.7119 79.283L67.7027 79.2588L67.6942 79.2343C67.4723 78.5979 67.053 78.0383 66.4875 77.6364C65.9242 77.2361 65.245 77.0135 64.5422 77.0034Z" fill="black"/>
</g>
<defs>
<clipPath id="clip0_601_24">
<rect width="100" height="100" fill="white"/>
</clipPath>
</defs>
</svg>

